<?xml version="1.0" encoding="iso-8859-1"?>
<!-- Generator: Adobe Illustrator 19.0.0, SVG Export Plug-In . SVG Version: 6.00 Build 0)  -->
<svg version="1.1" id="Capa_1" xmlns="http://www.w3.org/2000/svg" xmlns:xlink="http://www.w3.org/1999/xlink" x="0px" y="0px"
	 viewBox="0 0 470 470" style="enable-background:new 0 0 470 470;" xml:space="preserve">
<g>
	<path d="M123.431,225.993c-5.54-5.541-12.906-8.592-20.741-8.592c-5.103,0-10.002,1.302-14.333,3.735v-97.665
		c0-4.961-1.242-9.636-3.426-13.737c1.315-0.391,2.69-0.596,4.093-0.596c7.903,0,14.333,6.43,14.333,14.333v72.109
		c0,4.142,3.358,7.5,7.5,7.5s7.5-3.358,7.5-7.5v-72.109c0-16.174-13.159-29.333-29.333-29.333c-5.35,0-10.508,1.445-15.01,4.133
		c-4.39-2.622-9.516-4.133-14.99-4.133c-16.174,0-29.333,13.159-29.333,29.339l0.122,137.643c0.005,6.282,2.331,15.149,5.409,20.625
		c0.051,0.09,0.103,0.178,0.157,0.266l86.394,139.901c1.794,3.271,3.411,9.494,3.411,13.162V462.5c0,4.142,3.358,7.5,7.5,7.5
		s7.5-3.358,7.5-7.5v-27.425c0-6.283-2.322-15.153-5.401-20.631c-0.051-0.089-0.103-0.178-0.157-0.266L48.233,274.277
		c-1.795-3.273-3.416-9.499-3.419-13.169l-0.122-137.637c0-7.903,6.43-14.333,14.333-14.333s14.333,6.43,14.333,14.333v123.263
		c0,0.176,0.014,0.349,0.026,0.522c0.13,7.336,2.979,14.633,8.565,20.219l67.177,67.177c2.929,2.929,7.678,2.929,10.606,0
		c2.929-2.929,2.929-7.678,0-10.606l-67.177-67.177c-2.707-2.707-4.198-6.306-4.198-10.134c0-3.829,1.491-7.428,4.198-10.135
		c5.589-5.588,14.681-5.588,20.27,0l82.656,82.656c9.226,9.227,17.021,28.044,17.021,41.092V462.5c0,4.142,3.358,7.5,7.5,7.5
		s7.5-3.358,7.5-7.5V360.347c0-16.982-9.406-39.691-21.415-51.699L123.431,225.993z"/>
	<path d="M410.976,94.139c-5.474,0-10.6,1.511-14.99,4.133c-4.501-2.688-9.66-4.133-15.01-4.133
		c-16.174,0-29.333,13.159-29.333,29.333v72.109c0,4.142,3.358,7.5,7.5,7.5s7.5-3.358,7.5-7.5v-72.109
		c0-7.903,6.43-14.333,14.333-14.333c1.403,0,2.779,0.205,4.093,0.596c-2.183,4.101-3.426,8.776-3.426,13.737v97.665
		c-4.33-2.433-9.23-3.735-14.333-3.735c-7.835,0-15.201,3.051-20.741,8.592l-82.656,82.656
		c-12.008,12.008-21.415,34.717-21.415,51.699V462.5c0,4.142,3.358,7.5,7.5,7.5s7.5-3.358,7.5-7.5V360.347
		c0-13.048,7.795-31.866,17.021-41.092l82.656-82.656c5.589-5.588,14.681-5.588,20.27,0c2.707,2.707,4.198,6.306,4.198,10.135
		c0,3.828-1.491,7.427-4.198,10.134l-67.177,67.177c-2.929,2.929-2.929,7.678,0,10.606c2.929,2.929,7.678,2.929,10.606,0
		l67.177-67.177c5.586-5.586,8.435-12.882,8.565-20.219c0.012-0.173,0.026-0.346,0.026-0.522V123.471
		c0-7.903,6.43-14.333,14.333-14.333s14.333,6.43,14.333,14.326l-0.122,137.644c-0.003,3.67-1.624,9.896-3.419,13.169
		l-86.394,139.901c-0.054,0.088-0.106,0.176-0.157,0.266c-3.079,5.479-5.401,14.348-5.401,20.631V462.5c0,4.142,3.358,7.5,7.5,7.5
		s7.5-3.358,7.5-7.5v-27.425c0-3.668,1.617-9.891,3.411-13.162l86.394-139.901c0.054-0.087,0.106-0.176,0.157-0.266
		c3.078-5.476,5.404-14.343,5.409-20.625l0.122-137.65C440.308,107.297,427.149,94.139,410.976,94.139z"/>
	<path d="M139.5,187.506c8.527,0,17.739-3.189,27.491-6.566c10.959-3.795,22.292-7.719,33.713-7.719
		c5.95,0,11.188,1.272,15.569,3.782c3.596,2.059,8.176,0.814,10.236-2.78c2.059-3.594,0.814-8.177-2.78-10.236
		c-6.679-3.826-14.426-5.766-23.025-5.766c-13.945,0-27.055,4.54-38.621,8.544c-5.343,1.85-10.499,3.636-15.083,4.711V28.569
		c6.354-1.128,13.034-3.442,19.991-5.851C177.95,18.924,189.282,15,200.704,15c18.694,0,25.331,12.888,26.796,16.412v113.157
		c0,4.142,3.358,7.5,7.5,7.5s7.5-3.358,7.5-7.5V31.405C243.949,27.9,250.56,15,269.296,15c11.421,0,22.754,3.924,33.713,7.719
		c6.957,2.409,13.637,4.722,19.991,5.851v142.907c-4.583-1.075-9.74-2.861-15.083-4.711c-11.566-4.005-24.676-8.544-38.621-8.544
		c-8.598,0-16.345,1.94-23.024,5.765c-3.594,2.059-4.839,6.642-2.781,10.236s6.642,4.837,10.236,2.781
		c4.381-2.509,9.619-3.782,15.569-3.782c11.421,0,22.754,3.924,33.713,7.719c9.752,3.377,18.963,6.566,27.491,6.566
		c4.142,0,7.5-3.358,7.5-7.5V21.785c0-4.142-3.358-7.5-7.5-7.5c-6.004,0-14.057-2.789-22.583-5.741
		C296.351,4.54,283.241,0,269.296,0C252.708,0,241.625,7.406,235,15.274C228.375,7.406,217.292,0,200.704,0
		c-13.945,0-27.055,4.54-38.621,8.544c-8.526,2.952-16.579,5.741-22.583,5.741c-4.142,0-7.5,3.358-7.5,7.5v158.221
		C132,184.148,135.358,187.506,139.5,187.506z"/>
	<path d="M269.296,202.955c11.421,0,22.754,3.924,33.713,7.719c9.752,3.376,18.963,6.566,27.491,6.566c4.142,0,7.5-3.358,7.5-7.5
		s-3.358-7.5-7.5-7.5c-6.004,0-14.057-2.789-22.583-5.74c-11.566-4.005-24.676-8.544-38.621-8.544
		c-14.713,0-24.473,5.68-30.523,11.288h-7.547c-6.05-5.608-15.81-11.288-30.522-11.288c-13.945,0-27.055,4.539-38.621,8.544
		c-8.525,2.952-16.579,5.74-22.583,5.74c-4.142,0-7.5,3.358-7.5,7.5s3.358,7.5,7.5,7.5c8.527,0,17.739-3.189,27.491-6.566
		c10.959-3.795,22.292-7.719,33.713-7.719c9.152,0,16.511,2.976,21.87,8.845c1.421,1.556,3.431,2.443,5.539,2.443h13.775
		c2.107,0,4.117-0.887,5.539-2.443C252.785,205.931,260.144,202.955,269.296,202.955z"/>
</g>
<g>
</g>
<g>
</g>
<g>
</g>
<g>
</g>
<g>
</g>
<g>
</g>
<g>
</g>
<g>
</g>
<g>
</g>
<g>
</g>
<g>
</g>
<g>
</g>
<g>
</g>
<g>
</g>
<g>
</g>
</svg>
